<?xml version="1.0" standalone="no"?>
<!DOCTYPE svg PUBLIC "-//W3C//DTD SVG 20010904//EN"
 "http://www.w3.org/TR/2001/REC-SVG-20010904/DTD/svg10.dtd">
<svg version="1.0" xmlns="http://www.w3.org/2000/svg"
 width="1478.000000pt" height="1478.000000pt" viewBox="0 0 1478.000000 1478.000000"
 preserveAspectRatio="xMidYMid meet">
<metadata>
Created by potrace 1.14, written by Peter Selinger 2001-2017
</metadata>
<g transform="translate(0.000000,1478.000000) scale(0.100000,-0.100000)"
fill="#000000" stroke="none">
<path d="M7275 14650 c-33 -18 -109 -100 -110 -119 -1 -9 -113 -179 -168 -256
-234 -321 -576 -637 -961 -889 -125 -82 -472 -283 -494 -286 -4 -1 -14 -8 -23
-16 -9 -8 -19 -11 -22 -7 -4 3 -7 0 -7 -7 0 -7 -3 -11 -6 -7 -3 3 -35 -10 -70
-29 -35 -19 -64 -31 -64 -27 0 5 -4 2 -9 -5 -4 -7 -14 -14 -22 -16 -8 -1 -24
-7 -35 -14 -12 -6 -24 -8 -28 -5 -3 3 -6 1 -6 -6 0 -7 -4 -9 -10 -6 -5 3 -10
1 -10 -5 0 -7 -6 -10 -12 -8 -7 3 -19 -1 -26 -9 -8 -7 -18 -11 -23 -8 -5 4 -9
1 -9 -5 0 -7 -7 -10 -15 -6 -8 3 -15 2 -15 -3 0 -11 -50 -32 -61 -26 -5 4 -9
1 -9 -5 0 -7 -6 -10 -12 -8 -7 3 -19 -2 -27 -9 -7 -8 -20 -12 -27 -9 -8 3 -14
1 -14 -3 0 -12 -60 -32 -71 -25 -5 3 -9 1 -9 -5 0 -9 -56 -27 -72 -23 -5 1 -8
-2 -8 -7 0 -7 -45 -23 -75 -25 -5 -1 -12 -4 -15 -7 -5 -7 -146 -51 -170 -53
-9 -1 -20 -5 -26 -9 -11 -6 -114 -36 -144 -42 -8 -1 -22 -5 -30 -8 -13 -5
-132 -34 -275 -67 -81 -19 -304 -60 -460 -83 -149 -23 -210 -31 -450 -56 -102
-11 -399 -28 -680 -39 l-190 -7 0 -57 c0 -32 2 -58 5 -58 3 0 6 -39 7 -87 2
-49 5 -117 8 -153 3 -36 7 -105 9 -155 2 -49 5 -90 6 -90 3 0 8 -85 14 -215 2
-47 5 -85 6 -85 3 0 9 -86 13 -200 2 -45 6 -85 9 -90 3 -6 4 -32 3 -60 -1 -27
1 -54 5 -60 4 -5 6 -44 5 -85 0 -41 2 -80 6 -85 4 -6 7 -36 6 -68 -1 -31 0
-57 4 -57 3 0 6 -35 7 -77 1 -43 4 -98 7 -123 3 -25 7 -88 10 -140 2 -52 5
-95 6 -95 3 0 10 -108 12 -197 1 -43 5 -78 9 -78 4 0 7 -21 8 -47 0 -27 3 -84
6 -128 3 -44 6 -103 8 -130 1 -28 5 -55 8 -60 3 -6 5 -43 4 -83 0 -39 2 -72 6
-72 4 0 6 -25 5 -55 -2 -30 0 -55 3 -55 4 0 7 -30 7 -67 1 -38 2 -70 3 -73 4
-9 9 -61 14 -155 2 -49 7 -97 9 -105 3 -8 5 -22 5 -30 0 -8 3 -60 7 -115 4
-55 8 -121 10 -146 1 -25 4 -50 7 -55 5 -9 10 -85 12 -186 1 -32 4 -58 7 -58
4 0 6 -29 5 -65 -1 -36 2 -66 5 -67 4 -2 10 -50 14 -108 3 -58 8 -125 11 -150
6 -63 12 -134 18 -207 2 -34 6 -66 9 -70 2 -4 5 -28 5 -53 0 -25 4 -72 7 -105
4 -33 8 -80 10 -105 2 -25 8 -85 14 -135 6 -49 11 -99 10 -110 -1 -11 4 -56
10 -100 6 -44 10 -89 10 -100 -1 -11 4 -54 10 -95 6 -41 10 -84 10 -95 -1 -11
4 -60 11 -108 6 -49 10 -91 7 -93 -3 -3 -1 -20 4 -37 7 -28 17 -115 35 -302 2
-27 6 -63 9 -80 3 -16 14 -111 25 -210 52 -474 141 -1086 201 -1384 64 -322
181 -733 296 -1046 49 -133 71 -190 118 -300 33 -78 170 -350 177 -353 4 -2 8
-9 8 -15 0 -10 97 -175 109 -187 4 -3 12 -17 20 -33 8 -15 18 -27 23 -27 4 0
8 -7 8 -15 0 -7 8 -19 18 -24 9 -6 14 -11 10 -11 -7 0 -2 -8 44 -62 10 -12 18
-24 18 -27 0 -4 16 -24 35 -44 19 -20 35 -40 34 -43 0 -3 11 -18 25 -32 14
-15 46 -48 70 -75 25 -26 42 -47 39 -47 -6 0 45 -50 166 -163 19 -18 36 -31
37 -30 1 1 20 -16 42 -37 60 -57 237 -187 354 -259 130 -82 392 -215 523 -265
55 -22 114 -44 130 -51 52 -21 208 -73 280 -94 39 -11 118 -33 176 -50 58 -17
148 -49 200 -71 97 -42 271 -138 277 -152 2 -4 8 -8 14 -8 23 0 207 -140 290
-221 26 -25 49 -44 51 -42 4 3 103 -105 142 -155 11 -14 30 -34 42 -45 13 -12
23 -26 23 -33 0 -6 7 -14 15 -18 8 -3 15 -12 15 -20 0 -7 7 -16 15 -20 8 -3
15 -12 15 -20 0 -8 3 -16 8 -18 10 -5 72 -97 72 -108 0 -6 4 -10 9 -10 5 0 15
-16 22 -35 7 -19 17 -35 21 -35 4 0 8 -7 8 -15 0 -8 4 -15 8 -15 5 0 14 -12
21 -28 7 -15 19 -34 27 -42 8 -8 34 -36 58 -63 23 -26 46 -47 50 -47 4 0 17
-9 28 -20 12 -11 46 -28 75 -37 45 -14 58 -15 93 -3 22 7 40 17 40 22 0 4 5 8
10 8 19 0 150 121 150 138 0 5 7 12 15 16 8 3 15 12 15 21 0 8 4 15 8 15 5 0
17 18 28 40 10 22 22 40 27 40 4 0 7 4 7 9 0 9 60 105 80 128 5 7 10 16 10 20
0 5 11 20 25 35 14 15 25 32 25 37 0 6 9 16 20 23 11 7 20 17 20 22 0 5 11 19
25 32 14 13 25 26 25 30 0 10 214 224 224 224 4 0 17 11 28 26 11 14 22 23 24
21 3 -2 19 9 37 26 85 80 481 307 536 307 9 0 21 4 27 9 8 9 196 65 306 92 60
14 311 106 426 156 607 259 1075 646 1416 1172 117 180 241 418 318 611 6 14
16 39 23 55 98 225 272 794 344 1125 54 244 125 692 176 1100 3 25 8 59 10 75
3 17 7 50 10 75 3 25 8 63 11 85 3 22 7 60 10 85 7 72 34 312 39 345 6 42 13
108 20 190 4 39 9 81 11 95 3 14 8 63 11 110 3 47 8 87 12 90 3 3 7 28 8 55 1
49 5 99 16 200 3 28 7 70 8 95 1 25 4 49 7 54 5 9 11 79 13 156 1 25 4 49 7
55 3 5 7 27 8 50 7 115 19 244 24 255 1 3 1 33 1 68 0 34 3 62 7 62 4 0 8 19
8 43 1 23 5 78 8 122 4 44 7 97 7 118 0 20 3 37 7 37 4 0 8 28 9 62 0 35 4 88
7 118 3 30 8 87 10 125 3 39 8 95 11 125 3 30 8 82 10 115 2 33 6 87 10 120 3
33 7 85 9 115 2 30 4 57 5 60 2 5 6 58 15 190 3 36 7 94 11 130 3 36 7 94 9
130 2 36 4 67 6 70 4 7 9 89 12 178 1 39 4 72 8 72 3 0 6 24 7 53 1 28 3 87 5
130 1 42 4 77 8 77 3 0 6 30 8 68 4 114 9 197 12 202 3 7 10 121 12 213 1 42
5 77 8 77 5 0 9 63 13 202 1 43 5 78 8 78 3 0 4 24 4 53 -1 28 1 57 4 62 3 6
6 44 8 85 5 137 9 195 14 205 3 6 5 45 4 88 0 42 2 77 5 77 3 0 6 30 5 66 0
36 2 67 6 69 3 3 5 41 4 85 -1 44 1 83 5 85 4 3 7 32 6 65 -2 34 0 63 4 65 3
2 6 42 5 89 0 47 2 86 6 86 4 0 6 29 4 65 -1 36 1 65 5 65 3 0 6 42 5 93 l0
92 -190 7 c-593 23 -897 52 -1305 124 -229 40 -559 115 -634 144 -14 5 -26 8
-26 5 0 -2 -19 3 -42 11 -24 9 -54 18 -67 20 -13 3 -32 9 -42 14 -10 6 -27 10
-38 10 -12 0 -21 5 -21 11 0 5 -4 8 -9 5 -5 -4 -22 -1 -38 5 -15 7 -34 13 -41
15 -8 1 -21 6 -30 10 -9 4 -19 8 -22 8 -3 1 -18 6 -35 13 -59 22 -70 26 -85
29 -8 2 -16 7 -18 13 -2 5 -10 7 -18 4 -8 -3 -14 0 -14 7 0 6 -4 8 -10 5 -5
-3 -29 4 -52 16 -24 13 -51 23 -61 24 -11 1 -22 7 -27 14 -4 7 -9 12 -11 11
-11 -4 -59 13 -59 22 0 5 -4 6 -10 3 -5 -3 -10 -2 -10 4 0 6 -7 8 -15 5 -8 -4
-15 -1 -15 6 0 6 -4 9 -9 5 -5 -3 -15 0 -23 7 -7 7 -20 14 -28 16 -20 5 -181
83 -210 103 -14 9 -28 17 -33 18 -29 4 -353 191 -507 294 -411 274 -756 607
-996 962 -41 61 -74 116 -74 123 0 6 -4 12 -10 12 -5 0 -10 5 -10 11 0 6 -6
17 -12 24 -7 8 -26 32 -43 53 -43 55 -71 74 -119 79 -29 3 -53 -2 -81 -17z"/>
</g>
</svg>
